# xmcd
#
# Track frame offsets: 
#        183
#        17395
#        30545
#        54120
#        68618
#        85908
#        103058
#        124020
#        150558
#        162070
#        180483
#        202958
#        228383
#        243695
#        260470
#        281008
#        309758
#        320145
#
# Disc length: 4444 seconds
#
# Revision: 0
# Processed by: cddbd v1.4b42PL0 Copyright (c) Steve Scherf et al.
# Submitted via: ExactAudioCopy v0.90a11
#
DISCID=df115a12
DTITLE=Various Artist - Chicago Blues
DYEAR=1900
DGENRE=
TTITLE0=We're Ready(1)
TTITLE1=Hoochie Coochie Man
TTITLE2=In My Younger Days
TTITLE3=Speak My Mind
TTITLE4=Come On Back Home
TTITLE5=I Got My Mojo Working
TTITLE6=Why You Want To Hurt Me
TTITLE7=Country Girl
TTITLE8=Hobo Blues
TTITLE9=Wang Dang Doodle
TTITLE10=Driving Wheel
TTITLE11=Walking Groundhog
TTITLE12=Hoodoo Man
TTITLE13=Uncle Sam
TTITLE14=She's 19 Years Old
TTITLE15=First Time I Met The Blues
TTITLE16=You're Gonna Miss Me
TTITLE17=We're Ready(2)
EXTD=
EXTT0=
EXTT1=
EXTT2=
EXTT3=
EXTT4=
EXTT5=
EXTT6=
EXTT7=
EXTT8=
EXTT9=
EXTT10=
EXTT11=
EXTT12=
EXTT13=
EXTT14=
EXTT15=
EXTT16=
EXTT17=
PLAYORDER=
